<svg width="1440" height="186" viewBox="0 0 1440 186" fill="none" xmlns="http://www.w3.org/2000/svg">
<g filter="url(#filter0_n_41_735)">
<path d="M14.0294 147.129L23.062 115.254H0V92.9028H29.404L39.9741 56.3636H16.9121V34.0125H46.1239L55.1565 2.33228H80.7169L71.6843 34.0125H103.394L112.235 2.33228H137.795L128.763 34.0125H151.825V56.3636H122.421L112.043 92.9028H135.105V115.254H105.701L96.668 147.129H71.2999L80.1403 115.254H48.6223L39.5897 147.129H14.0294ZM54.9643 92.9028H86.6745L96.8602 56.3636H65.3422L54.9643 92.9028Z" fill="url(#paint0_linear_41_735)"/>
<path d="M240.236 149.461C229.986 149.461 220.505 147.582 211.793 143.824C203.209 140.067 195.65 134.819 189.116 128.081C182.709 121.344 177.713 113.44 174.125 104.37C170.538 95.2999 168.744 85.3877 168.744 74.6332C168.744 63.8788 170.474 53.9666 173.933 44.8966C177.521 35.697 182.517 27.7931 188.923 21.185C195.458 14.4472 203.081 9.26436 211.793 5.63636C220.505 1.87879 229.986 0 240.236 0C250.486 0 259.647 1.74922 267.718 5.24765C275.918 8.74608 282.837 13.4107 288.474 19.2414C294.112 24.9425 298.147 31.2267 300.582 38.094L277.135 49.1724C274.445 41.9164 269.896 35.9561 263.49 31.2915C257.084 26.4974 249.333 24.1003 240.236 24.1003C231.268 24.1003 223.324 26.2382 216.406 30.5141C209.615 34.79 204.298 40.6855 200.454 48.2006C196.739 55.7158 194.881 64.5266 194.881 74.6332C194.881 84.7398 196.739 93.6155 200.454 101.26C204.298 108.775 209.615 114.671 216.406 118.947C223.324 123.223 231.268 125.36 240.236 125.36C249.333 125.36 257.084 123.028 263.49 118.364C269.896 113.569 274.445 107.544 277.135 100.288L300.582 111.367C298.147 118.234 294.112 124.583 288.474 130.414C282.837 136.115 275.918 140.715 267.718 144.213C259.647 147.712 250.486 149.461 240.236 149.461Z" fill="url(#paint1_linear_41_735)"/>
<path d="M314.883 147.129V41.3981H338.521V64.9154L336.599 61.4169C339.034 53.5131 342.813 48.0063 347.938 44.8966C353.191 41.7868 359.469 40.232 366.772 40.232H372.922V62.7774H363.889C356.715 62.7774 350.949 65.0449 346.593 69.5799C342.237 73.9854 340.059 80.2048 340.059 88.2382V147.129H314.883Z" fill="url(#paint2_linear_41_735)"/>
<path d="M431.542 149.461C420.78 149.461 411.363 146.999 403.291 142.075C395.22 137.152 388.942 130.479 384.458 122.056C379.973 113.634 377.731 104.305 377.731 94.069C377.731 83.4441 379.973 74.0502 384.458 65.8871C389.07 57.5946 395.284 51.0512 403.099 46.257C411.043 41.4629 419.883 39.0658 429.621 39.0658C437.82 39.0658 444.995 40.4263 451.145 43.1473C457.423 45.8683 462.74 49.6259 467.096 54.4201C471.452 59.2142 474.784 64.721 477.09 70.9404C479.396 77.0303 480.549 83.6385 480.549 90.7649C480.549 92.5789 480.421 94.4577 480.165 96.4013C480.037 98.3448 479.716 100.029 479.204 101.455H398.487V82.0188H464.982L453.067 91.1536C454.22 85.1933 453.9 79.8809 452.106 75.2163C450.44 70.5517 447.622 66.8589 443.65 64.1379C439.806 61.4169 435.13 60.0564 429.621 60.0564C424.368 60.0564 419.691 61.4169 415.591 64.1379C411.491 66.7294 408.352 70.6165 406.174 75.7994C404.124 80.8527 403.356 87.0073 403.868 94.2633C403.356 100.742 404.188 106.508 406.366 111.561C408.673 116.485 412.004 120.307 416.36 123.028C420.844 125.749 425.969 127.11 431.735 127.11C437.5 127.11 442.369 125.879 446.34 123.417C450.44 120.955 453.643 117.651 455.95 113.505L476.321 123.611C474.271 128.665 471.068 133.135 466.712 137.022C462.356 140.909 457.167 143.954 451.145 146.157C445.251 148.359 438.717 149.461 431.542 149.461Z" fill="url(#paint3_linear_41_735)"/>
<path d="M526.164 149.461C518.861 149.461 512.519 148.23 507.138 145.768C501.757 143.306 497.593 139.808 494.646 135.273C491.699 130.608 490.226 125.231 490.226 119.141C490.226 113.31 491.507 108.127 494.069 103.592C496.632 98.9279 500.604 95.0407 505.985 91.931C511.366 88.8213 518.156 86.6186 526.356 85.3229L560.565 79.6865V99.1223L531.161 104.176C526.164 105.083 522.448 106.702 520.014 109.034C517.58 111.367 516.363 114.412 516.363 118.169C516.363 121.797 517.708 124.713 520.398 126.915C523.217 128.988 526.676 130.025 530.776 130.025C536.029 130.025 540.642 128.924 544.614 126.721C548.713 124.389 551.852 121.214 554.031 117.197C556.337 113.181 557.49 108.775 557.49 103.981V76.7712C557.49 72.2362 555.696 68.4786 552.109 65.4984C548.649 62.3887 544.037 60.8338 538.271 60.8338C532.89 60.8338 528.086 62.3239 523.858 65.3041C519.758 68.1546 516.747 71.977 514.825 76.7712L494.262 66.6646C496.312 61.093 499.515 56.2988 503.871 52.2821C508.355 48.1358 513.608 44.8965 519.63 42.5643C525.651 40.232 532.186 39.0658 539.232 39.0658C547.817 39.0658 555.376 40.6855 561.91 43.9248C568.444 47.0345 573.505 51.4399 577.092 57.1411C580.808 62.7126 582.666 69.256 582.666 76.7712V147.129H558.835V129.053L564.216 128.665C561.526 133.2 558.323 137.022 554.607 140.132C550.892 143.112 546.663 145.444 541.923 147.129C537.182 148.683 531.929 149.461 526.164 149.461Z" fill="url(#paint4_linear_41_735)"/>
<path d="M646.915 148.295C635.128 148.295 625.967 145.055 619.433 138.577C613.027 131.969 609.824 122.704 609.824 110.784V64.1379H591.758V41.3981H593.68C598.805 41.3981 602.777 40.0376 605.596 37.3166C608.414 34.5956 609.824 30.6437 609.824 25.4608V17.2978H635V41.3981H659.022V64.1379H635V109.423C635 112.922 635.576 115.902 636.729 118.364C638.01 120.825 639.932 122.704 642.495 124C645.185 125.296 648.581 125.944 652.68 125.944C653.577 125.944 654.602 125.879 655.755 125.749C657.037 125.62 658.254 125.49 659.407 125.36V147.129C657.613 147.388 655.563 147.647 653.257 147.906C650.951 148.165 648.837 148.295 646.915 148.295Z" fill="url(#paint5_linear_41_735)"/>
<path d="M722.482 149.461C711.72 149.461 702.303 146.999 694.231 142.075C686.159 137.152 679.881 130.479 675.397 122.056C670.913 113.634 668.671 104.305 668.671 94.069C668.671 83.4441 670.913 74.0502 675.397 65.8871C680.009 57.5946 686.223 51.0512 694.039 46.257C701.982 41.4629 710.823 39.0658 720.56 39.0658C728.76 39.0658 735.935 40.4263 742.085 43.1473C748.363 45.8683 753.68 49.6259 758.036 54.4201C762.392 59.2142 765.723 64.721 768.029 70.9404C770.335 77.0303 771.489 83.6385 771.489 90.7649C771.489 92.5789 771.36 94.4577 771.104 96.4013C770.976 98.3448 770.656 100.029 770.143 101.455H689.426V82.0188H755.922L744.006 91.1536C745.159 85.1933 744.839 79.8809 743.045 75.2163C741.38 70.5517 738.561 66.8589 734.589 64.1379C730.746 61.4169 726.069 60.0564 720.56 60.0564C715.307 60.0564 710.631 61.4169 706.531 64.1379C702.431 66.7294 699.292 70.6165 697.114 75.7994C695.064 80.8527 694.295 87.0073 694.808 94.2633C694.295 100.742 695.128 106.508 697.306 111.561C699.612 116.485 702.943 120.307 707.299 123.028C711.784 125.749 716.909 127.11 722.674 127.11C728.44 127.11 733.308 125.879 737.28 123.417C741.38 120.955 744.583 117.651 746.889 113.505L767.261 123.611C765.211 128.665 762.008 133.135 757.651 137.022C753.295 140.909 748.106 143.954 742.085 146.157C736.191 148.359 729.657 149.461 722.482 149.461Z" fill="url(#paint6_linear_41_735)"/>
<path d="M817.236 147.129V2.33228H843.372V147.129H817.236Z" fill="url(#paint7_linear_41_735)"/>
<path d="M863.993 147.129V41.3981H887.632V65.8871L884.941 61.8056C886.863 54.1609 890.706 48.4598 896.472 44.7022C902.237 40.9446 909.028 39.0658 916.843 39.0658C925.428 39.0658 932.987 41.3333 939.521 45.8683C946.055 50.4033 950.283 56.3636 952.205 63.7492L945.094 64.3323C948.297 55.9101 953.102 49.6259 959.508 45.4796C965.914 41.2038 973.281 39.0658 981.609 39.0658C989.04 39.0658 995.638 40.7503 1001.4 44.1191C1007.3 47.488 1011.91 52.2173 1015.24 58.3072C1018.57 64.2675 1020.24 71.1996 1020.24 79.1034V147.129H995.062V85.1285C995.062 80.4639 994.229 76.4472 992.563 73.0784C990.898 69.7095 988.592 67.1181 985.645 65.3041C982.698 63.3605 979.111 62.3887 974.883 62.3887C970.911 62.3887 967.388 63.3605 964.313 65.3041C961.238 67.1181 958.867 69.7095 957.202 73.0784C955.536 76.4472 954.703 80.4639 954.703 85.1285V147.129H929.527V85.1285C929.527 80.4639 928.695 76.4472 927.029 73.0784C925.364 69.7095 922.993 67.1181 919.918 65.3041C916.972 63.3605 913.448 62.3887 909.348 62.3887C905.377 62.3887 901.853 63.3605 898.778 65.3041C895.703 67.1181 893.333 69.7095 891.667 73.0784C890.002 76.4472 889.169 80.4639 889.169 85.1285V147.129H863.993Z" fill="url(#paint8_linear_41_735)"/>
<path d="M1036.73 186V41.3981H1060.37V62.3887L1058.06 57.1411C1061.65 51.4399 1066.52 47.0345 1072.67 43.9248C1078.82 40.6855 1085.93 39.0658 1094 39.0658C1103.87 39.0658 1112.77 41.5277 1120.72 46.4514C1128.66 51.3751 1134.94 57.9833 1139.55 66.2759C1144.29 74.5684 1146.66 83.8976 1146.66 94.2633C1146.66 104.499 1144.36 113.829 1139.74 122.251C1135.13 130.673 1128.85 137.346 1120.91 142.27C1112.97 147.064 1103.93 149.461 1093.81 149.461C1086.25 149.461 1079.27 147.971 1072.86 144.991C1066.58 141.881 1061.59 137.475 1057.87 131.774L1061.91 126.721V186H1036.73ZM1090.93 126.138C1096.69 126.138 1101.82 124.777 1106.3 122.056C1110.79 119.335 1114.25 115.578 1116.68 110.784C1119.24 105.99 1120.52 100.483 1120.52 94.2633C1120.52 88.0439 1119.24 82.6019 1116.68 77.9373C1114.25 73.1432 1110.79 69.3856 1106.3 66.6646C1101.82 63.814 1096.69 62.3887 1090.93 62.3887C1085.42 62.3887 1080.42 63.7492 1075.94 66.4702C1071.58 69.1912 1068.12 73.0136 1065.56 77.9373C1063.13 82.7315 1061.91 88.1735 1061.91 94.2633C1061.91 100.483 1063.13 105.99 1065.56 110.784C1068.12 115.578 1071.58 119.335 1075.94 122.056C1080.42 124.777 1085.42 126.138 1090.93 126.138Z" fill="url(#paint9_linear_41_735)"/>
<path d="M1192.76 149.461C1185.46 149.461 1179.12 148.23 1173.73 145.768C1168.35 143.306 1164.19 139.808 1161.24 135.273C1158.3 130.608 1156.82 125.231 1156.82 119.141C1156.82 113.31 1158.1 108.127 1160.67 103.592C1163.23 98.9279 1167.2 95.0407 1172.58 91.931C1177.96 88.8213 1184.75 86.6186 1192.95 85.3229L1227.16 79.6865V99.1223L1197.76 104.176C1192.76 105.083 1189.05 106.702 1186.61 109.034C1184.18 111.367 1182.96 114.412 1182.96 118.169C1182.96 121.797 1184.31 124.713 1187 126.915C1189.81 128.988 1193.27 130.025 1197.37 130.025C1202.63 130.025 1207.24 128.924 1211.21 126.721C1215.31 124.389 1218.45 121.214 1220.63 117.197C1222.93 113.181 1224.09 108.775 1224.09 103.981V76.7712C1224.09 72.2362 1222.29 68.4786 1218.71 65.4984C1215.25 62.3887 1210.63 60.8338 1204.87 60.8338C1199.49 60.8338 1194.68 62.3239 1190.45 65.3041C1186.35 68.1546 1183.34 71.977 1181.42 76.7712L1160.86 66.6646C1162.91 61.093 1166.11 56.2988 1170.47 52.2821C1174.95 48.1358 1180.21 44.8965 1186.23 42.5643C1192.25 40.232 1198.78 39.0658 1205.83 39.0658C1214.41 39.0658 1221.97 40.6855 1228.51 43.9248C1235.04 47.0345 1240.1 51.4399 1243.69 57.1411C1247.41 62.7126 1249.26 69.256 1249.26 76.7712V147.129H1225.43V129.053L1230.81 128.665C1228.12 133.2 1224.92 137.022 1221.2 140.132C1217.49 143.112 1213.26 145.444 1208.52 147.129C1203.78 148.683 1198.53 149.461 1192.76 149.461Z" fill="url(#paint10_linear_41_735)"/>
<path d="M1318.08 149.461C1307.7 149.461 1298.35 147.064 1290.02 142.27C1281.82 137.346 1275.35 130.738 1270.61 122.445C1265.87 114.023 1263.5 104.564 1263.5 94.069C1263.5 83.5737 1265.87 74.1797 1270.61 65.8871C1275.35 57.5946 1281.82 51.0512 1290.02 46.257C1298.35 41.4629 1307.7 39.0658 1318.08 39.0658C1325.51 39.0658 1332.43 40.4263 1338.84 43.1473C1345.24 45.7388 1350.75 49.3668 1355.36 54.0313C1360.1 58.5663 1363.5 64.0084 1365.55 70.3574L1343.45 80.0752C1341.53 74.7628 1338.26 70.4869 1333.65 67.2476C1329.16 64.0084 1323.97 62.3887 1318.08 62.3887C1312.57 62.3887 1307.64 63.7492 1303.28 66.4702C1299.05 69.1912 1295.72 72.9488 1293.29 77.7429C1290.85 82.5371 1289.64 88.0439 1289.64 94.2633C1289.64 100.483 1290.85 105.99 1293.29 110.784C1295.72 115.578 1299.05 119.335 1303.28 122.056C1307.64 124.777 1312.57 126.138 1318.08 126.138C1324.1 126.138 1329.35 124.518 1333.84 121.279C1338.32 118.04 1341.53 113.699 1343.45 108.257L1365.55 118.364C1363.5 124.324 1360.17 129.701 1355.56 134.495C1350.94 139.16 1345.43 142.853 1339.03 145.574C1332.62 148.165 1325.64 149.461 1318.08 149.461Z" fill="url(#paint11_linear_41_735)"/>
<path d="M1427.51 148.295C1415.72 148.295 1406.56 145.055 1400.03 138.577C1393.62 131.969 1390.42 122.704 1390.42 110.784V64.1379H1372.35V41.3981H1374.27C1379.4 41.3981 1383.37 40.0376 1386.19 37.3166C1389.01 34.5956 1390.42 30.6437 1390.42 25.4608V17.2978H1415.59V41.3981H1439.62V64.1379H1415.59V109.423C1415.59 112.922 1416.17 115.902 1417.32 118.364C1418.6 120.825 1420.53 122.704 1423.09 124C1425.78 125.296 1429.17 125.944 1433.27 125.944C1434.17 125.944 1435.2 125.879 1436.35 125.749C1437.63 125.62 1438.85 125.49 1440 125.36V147.129C1438.21 147.388 1436.16 147.647 1433.85 147.906C1431.54 148.165 1429.43 148.295 1427.51 148.295Z" fill="url(#paint12_linear_41_735)"/>
</g>
<defs>
<filter id="filter0_n_41_735" x="0" y="0" width="1440" height="186" filterUnits="userSpaceOnUse" color-interpolation-filters="sRGB">
<feFlood flood-opacity="0" result="BackgroundImageFix"/>
<feBlend mode="normal" in="SourceGraphic" in2="BackgroundImageFix" result="shape"/>
<feTurbulence type="fractalNoise" baseFrequency="2 2" stitchTiles="stitch" numOctaves="3" result="noise" seed="8036" />
<feColorMatrix in="noise" type="luminanceToAlpha" result="alphaNoise" />
<feComponentTransfer in="alphaNoise" result="coloredNoise1">
<feFuncA type="discrete" tableValues="1 1 1 1 1 1 1 1 1 1 1 1 1 1 1 1 1 1 1 1 1 1 1 1 1 1 1 1 1 1 1 1 1 1 1 1 1 1 1 1 1 1 1 1 1 1 1 1 1 1 1 0 0 0 0 0 0 0 0 0 0 0 0 0 0 0 0 0 0 0 0 0 0 0 0 0 0 0 0 0 0 0 0 0 0 0 0 0 0 0 0 0 0 0 0 0 0 0 0 0 "/>
</feComponentTransfer>
<feComposite operator="in" in2="shape" in="coloredNoise1" result="noise1Clipped" />
<feFlood flood-color="rgba(0, 0, 0, 0.25)" result="color1Flood" />
<feComposite operator="in" in2="noise1Clipped" in="color1Flood" result="color1" />
<feMerge result="effect1_noise_41_735">
<feMergeNode in="shape" />
<feMergeNode in="color1" />
</feMerge>
</filter>
<linearGradient id="paint0_linear_41_735" x1="720" y1="0" x2="720" y2="186" gradientUnits="userSpaceOnUse">
<stop stop-color="#D4D4D4"/>
<stop offset="1" stop-color="white" stop-opacity="0.2"/>
</linearGradient>
<linearGradient id="paint1_linear_41_735" x1="720" y1="0" x2="720" y2="186" gradientUnits="userSpaceOnUse">
<stop stop-color="#D4D4D4"/>
<stop offset="1" stop-color="white" stop-opacity="0.2"/>
</linearGradient>
<linearGradient id="paint2_linear_41_735" x1="720" y1="0" x2="720" y2="186" gradientUnits="userSpaceOnUse">
<stop stop-color="#D4D4D4"/>
<stop offset="1" stop-color="white" stop-opacity="0.2"/>
</linearGradient>
<linearGradient id="paint3_linear_41_735" x1="720" y1="0" x2="720" y2="186" gradientUnits="userSpaceOnUse">
<stop stop-color="#D4D4D4"/>
<stop offset="1" stop-color="white" stop-opacity="0.2"/>
</linearGradient>
<linearGradient id="paint4_linear_41_735" x1="720" y1="0" x2="720" y2="186" gradientUnits="userSpaceOnUse">
<stop stop-color="#D4D4D4"/>
<stop offset="1" stop-color="white" stop-opacity="0.2"/>
</linearGradient>
<linearGradient id="paint5_linear_41_735" x1="720" y1="0" x2="720" y2="186" gradientUnits="userSpaceOnUse">
<stop stop-color="#D4D4D4"/>
<stop offset="1" stop-color="white" stop-opacity="0.2"/>
</linearGradient>
<linearGradient id="paint6_linear_41_735" x1="720" y1="0" x2="720" y2="186" gradientUnits="userSpaceOnUse">
<stop stop-color="#D4D4D4"/>
<stop offset="1" stop-color="white" stop-opacity="0.2"/>
</linearGradient>
<linearGradient id="paint7_linear_41_735" x1="720" y1="0" x2="720" y2="186" gradientUnits="userSpaceOnUse">
<stop stop-color="#D4D4D4"/>
<stop offset="1" stop-color="white" stop-opacity="0.2"/>
</linearGradient>
<linearGradient id="paint8_linear_41_735" x1="720" y1="0" x2="720" y2="186" gradientUnits="userSpaceOnUse">
<stop stop-color="#D4D4D4"/>
<stop offset="1" stop-color="white" stop-opacity="0.2"/>
</linearGradient>
<linearGradient id="paint9_linear_41_735" x1="720" y1="0" x2="720" y2="186" gradientUnits="userSpaceOnUse">
<stop stop-color="#D4D4D4"/>
<stop offset="1" stop-color="white" stop-opacity="0.2"/>
</linearGradient>
<linearGradient id="paint10_linear_41_735" x1="720" y1="0" x2="720" y2="186" gradientUnits="userSpaceOnUse">
<stop stop-color="#D4D4D4"/>
<stop offset="1" stop-color="white" stop-opacity="0.2"/>
</linearGradient>
<linearGradient id="paint11_linear_41_735" x1="720" y1="0" x2="720" y2="186" gradientUnits="userSpaceOnUse">
<stop stop-color="#D4D4D4"/>
<stop offset="1" stop-color="white" stop-opacity="0.2"/>
</linearGradient>
<linearGradient id="paint12_linear_41_735" x1="720" y1="0" x2="720" y2="186" gradientUnits="userSpaceOnUse">
<stop stop-color="#D4D4D4"/>
<stop offset="1" stop-color="white" stop-opacity="0.2"/>
</linearGradient>
</defs>
</svg>
